<?xml version="1.0" encoding="UTF-8"?><svg id="Layer_1" xmlns="http://www.w3.org/2000/svg" viewBox="0 0 315 342"><path d="M0,0h315v342H0V0ZM186.47,159.9c1.05,1,1.45,1.59,2.01,1.87,12.72,6.6,21.68,16.82,28.1,29.39,6.28,12.31,7.73,25.58,7.46,39.2-.35,16.9-5.28,31.84-17.67,43.89-1.25,1.21-2.23,3.35-2.25,5.07-.18,14.16-.17,28.33,0,42.49.02,1.57.91,4.07,2.06,4.54,5.36,2.19,10.84,4.76,16.49,5.42,7.72.91,15.64.04,23.47.28,8.83.27,22.66-8.44,26.01-18.47,3-9,2.91-18.12,2.9-27.33-.02-11.28,0-22.55,0-34.25,5.17,0,9.8.13,14.42-.03,12.92-.44,20.09-13.56,18.28-22.29-1.88-9.05-4.79-17.9-7.28-26.82-5.48-19.58-10.91-39.16-16.49-58.71-4.64-16.24-14.21-27.91-31.48-31.15-6.58-1.23-13.49-.95-20.25-.94-6.09.01-12.26.07-18.24,1.06-8.25,1.37-9.33,3.18-10.01,11.29-.24,2.91-.95,5.79-1.5,8.68-2.03,10.69-7.48,19.43-15.99,26.8ZM122.32,160.08c-6.3-5.53-11.05-11.47-13.92-19.02-2.75-7.24-3.67-14.55-3.49-22.18.04-1.58-.62-4.02-1.72-4.6-2.38-1.26-5.27-2.18-7.94-2.16-15.25.13-30.76-1.06-45.69,1.31-19.61,3.11-33.15,15.8-37.28,35.44-2.98,14.2-3.29,29.01-4.2,43.58-1.04,16.67,7.86,27.83,21.76,35.35,3.41,1.85,4.24,3.73,4.22,7.22-.12,22.15-.1,44.31-.05,66.46.04,17.38,13.22,30.55,30.39,30.52,7.33-.01,14.66-.14,21.99.04,6.09.15,10.96-2.49,15.86-5.65,2.54-1.64,2.81-3.56,2.79-6.14-.09-11.66-.24-23.32.05-34.98.13-5.08-.44-9.3-4.81-12.69-2.23-1.74-3.62-4.58-5.35-6.95-11.99-16.32-11.59-35.39-9.43-53.71,2.72-23,16.01-40.18,36.82-51.84ZM124,291.5c0,7.33-.06,14.66.01,22,.08,8.6,8.64,19.15,18.64,18.59,7.64-.43,15.33.07,22.99-.13,7.41-.19,13.61-2.98,16.32-10.36,1.55-4.21,2.76-8.77,2.89-13.22.38-12.82.09-25.66.19-38.49.01-1.53.26-3.73,1.25-4.46,10.63-7.82,16.52-17.84,17.98-31.28,1.59-14.63-.28-28.32-8.32-40.42-10.21-15.37-25.26-22.6-43.77-21.67-18.63.94-33.08,8.96-42.21,25.78-6.09,11.21-6.73,23.31-5.88,35.5.87,12.57,5.57,23.53,16.55,30.82,2.61,1.73,3.56,3.69,3.43,6.84-.28,6.82-.09,13.66-.08,20.49ZM74.49,92c21.48.73,40.06-17.99,40.19-39.9.12-21.03-17.35-39.37-38.49-40.19-25.04-.97-42.01,19.43-42.16,39.75-.16,21.28,17.39,41.02,40.46,40.35ZM234.31,92c22.96.73,40.72-19.6,40.38-40.21-.37-22.34-18.64-39.06-38.3-39.89-25.18-1.07-42.37,19.52-42.35,40.07.02,21.02,17.29,40.58,40.28,40.04ZM154.66,152c17.84-.14,30.23-13.73,30.06-30.15-.19-17.26-13.05-29.2-29.36-29.91-17.31-.75-31.45,13.46-31.48,29.96-.04,16.86,14.28,30.82,30.79,30.09Z" style="fill:#fff; stroke-width:0px;"/><path d="M186.47,159.9c8.51-7.38,13.96-16.11,15.99-26.8.55-2.89,1.26-5.76,1.5-8.68.68-8.11,1.77-9.92,10.01-11.29,5.98-.99,12.15-1.05,18.24-1.06,6.76-.01,13.67-.3,20.25.94,17.28,3.24,26.84,14.9,31.48,31.15,5.58,19.55,11.01,39.14,16.49,58.71,2.5,8.92,5.41,17.77,7.28,26.82,1.81,8.73-5.36,21.85-18.28,22.29-4.62.16-9.26.03-14.42.03,0,11.69-.02,22.97,0,34.25.02,9.21.1,18.33-2.9,27.33-3.34,10.03-17.17,18.74-26.01,18.47-7.82-.24-15.74.63-23.47-.28-5.65-.67-11.12-3.23-16.49-5.42-1.14-.47-2.04-2.97-2.06-4.54-.16-14.16-.17-28.33,0-42.49.02-1.72,1.01-3.86,2.25-5.07,12.4-12.05,17.33-26.99,17.67-43.89.28-13.62-1.17-26.89-7.46-39.2-6.41-12.57-15.38-22.79-28.1-29.39-.56-.29-.96-.88-2.01-1.87Z" style="fill:#000; stroke-width:0px;"/><path d="M122.32,160.08c-20.81,11.66-34.1,28.85-36.82,51.84-2.16,18.32-2.56,37.39,9.43,53.71,1.74,2.37,3.12,5.21,5.35,6.95,4.37,3.4,4.94,7.62,4.81,12.69-.29,11.65-.14,23.32-.05,34.98.02,2.58-.26,4.5-2.79,6.14-4.9,3.17-9.77,5.8-15.86,5.65-7.32-.18-14.66-.05-21.99-.04-17.16.03-30.35-13.15-30.39-30.52-.05-22.15-.07-44.31.05-66.46.02-3.49-.8-5.37-4.22-7.22-13.9-7.51-22.8-18.68-21.76-35.35.91-14.57,1.21-29.38,4.2-43.58,4.13-19.64,17.67-32.33,37.28-35.44,14.93-2.37,30.44-1.18,45.69-1.31,2.67-.02,5.56.9,7.94,2.16,1.11.58,1.76,3.02,1.72,4.6-.18,7.63.74,14.95,3.49,22.18,2.87,7.55,7.62,13.49,13.92,19.02Z" style="fill:#000; stroke-width:0px;"/><path d="M124,291.5c0-6.83-.19-13.67.08-20.49.13-3.15-.82-5.11-3.43-6.84-10.98-7.29-15.67-18.25-16.55-30.82-.85-12.2-.2-24.29,5.88-35.5,9.13-16.82,23.58-24.85,42.21-25.78,18.51-.93,33.56,6.3,43.77,21.67,8.04,12.1,9.9,25.79,8.32,40.42-1.46,13.45-7.35,23.46-17.98,31.28-.99.73-1.24,2.94-1.25,4.46-.09,12.83.19,25.67-.19,38.49-.13,4.44-1.35,9.01-2.89,13.22-2.71,7.38-8.91,10.17-16.32,10.36-7.66.2-15.35-.3-22.99.13-10,.56-18.56-9.99-18.64-18.59-.07-7.33-.01-14.66-.02-22Z" style="fill:#000; stroke-width:0px;"/><path d="M74.49,92c-23.08.67-40.62-19.07-40.46-40.35.15-20.32,17.13-40.72,42.16-39.75,21.14.82,38.61,19.16,38.49,40.19-.13,21.91-18.71,40.63-40.19,39.9Z" style="fill:#000; stroke-width:0px;"/><path d="M234.31,92c-22.98.55-40.25-19.02-40.28-40.04-.02-20.55,17.16-41.13,42.35-40.07,19.66.83,37.93,17.55,38.3,39.89.34,20.61-17.42,40.94-40.38,40.21Z" style="fill:#000; stroke-width:0px;"/><path d="M154.66,152c-16.51.72-30.82-13.23-30.79-30.09.03-16.5,14.17-30.72,31.48-29.96,16.31.71,29.18,12.64,29.36,29.91.18,16.42-12.22,30.02-30.06,30.15Z" style="fill:#000; stroke-width:0px;"/></svg>